<svg xmlns="http://www.w3.org/2000/svg" viewBox="0 0 167.26 102.04"><defs><style>.cls-1{fill:#01c6da;}.cls-2{fill:#01bacc;}.cls-3{fill:#cdd5d7;}.cls-4{fill:#e5e8ec;}.cls-5{fill:#282d33;}.cls-6{fill:#f3b840;}.cls-7{fill:#f0ca67;}.cls-8{fill:#f4da80;}.cls-9{fill:#484f59;}.cls-10{fill:#30363d;}.cls-11{fill:#ff876c;}.cls-12{fill:#b7bec0;}</style></defs><g id="Layer_2" data-name="Layer 2"><g id="Layer_4" data-name="Layer 4"><path class="cls-1" d="M131,79.21a8.79,8.79,0,1,1-8.79-8.79A8.8,8.8,0,0,1,131,79.21Zm-13.4,0a4.61,4.61,0,1,0,4.61-4.61A4.6,4.6,0,0,0,117.64,79.21Z"/><path class="cls-2" d="M128.07,79.21a5.82,5.82,0,1,1-5.82-5.82A5.81,5.81,0,0,1,128.07,79.21Zm-10.43,0a4.61,4.61,0,1,0,4.61-4.61A4.6,4.6,0,0,0,117.64,79.21Z"/><polygon class="cls-1" points="129.5 77.18 129.5 81.24 132.58 80.58 132.58 77.84 129.5 77.18"/><polygon class="cls-1" points="129.53 80.92 127.49 84.44 130.49 85.41 131.86 83.03 129.53 80.92"/><polygon class="cls-1" points="127.68 84.18 124.16 86.21 126.27 88.55 128.65 87.17 127.68 84.18"/><polygon class="cls-1" points="124.45 86.08 120.38 86.08 121.04 89.15 123.79 89.15 124.45 86.08"/><polygon class="cls-1" points="120.7 86.11 117.18 84.07 116.22 87.06 118.59 88.44 120.7 86.11"/><polygon class="cls-1" points="117.44 84.25 115.41 80.73 113.08 82.84 114.45 85.22 117.44 84.25"/><polygon class="cls-1" points="115.55 81.02 115.55 76.96 112.47 77.62 112.47 80.36 115.55 81.02"/><polygon class="cls-1" points="115.52 77.28 117.55 73.76 114.56 72.79 113.19 75.17 115.52 77.28"/><polygon class="cls-1" points="117.37 74.02 120.89 71.99 118.78 69.65 116.4 71.03 117.37 74.02"/><polygon class="cls-1" points="120.6 72.13 124.67 72.13 124.01 69.05 121.26 69.05 120.6 72.13"/><polygon class="cls-1" points="124.35 72.1 127.87 74.13 128.84 71.14 126.46 69.76 124.35 72.1"/><polygon class="cls-1" points="127.61 73.95 129.64 77.47 131.97 75.36 130.6 72.98 127.61 73.95"/><path class="cls-3" d="M116.63,45.63a31.58,31.58,0,0,0-63.15,0c0,.48,0,.95,0,1.43L49.11,54.7l-5.8,10h7.34V77.21a8.51,8.51,0,0,0,8.51,8.51H72.65V102h34.76V67.93A31.46,31.46,0,0,0,116.63,45.63Z"/><polygon class="cls-4" points="61.77 68.8 68.99 59.71 65.25 53.56 55.89 54.36 55.35 64.26 61.77 68.8"/><path class="cls-4" d="M62.59,45a32,32,0,0,0-7.4-1.84A31.43,31.43,0,0,1,65,22.7a31.8,31.8,0,0,1,5,2.37A31.43,31.43,0,0,0,62.59,45Z"/><path class="cls-5" d="M100.93,53.57H86.86a.9.9,0,0,1,0-1.8h14.07a.9.9,0,0,1,0,1.8Z"/><path class="cls-6" d="M111.41,17.52a17.52,17.52,0,0,0-35,0c0,.57.42,8.67,7,17.17,1.94,2.57,1.62,7.72,1.6,7.72h17.85s-.37-5.15,1.55-7.72C111,26.18,111.41,18.09,111.41,17.52Z"/><path class="cls-7" d="M99.52,40.12c.12-2.2.66-6.35,2-8.17,6.28-8.08,6.56-15.74,6.56-15.81a15.24,15.24,0,1,0-30.47,0c0,.06.29,7.72,6.54,15.77,1.39,1.84,2,6,2.08,8.2Z"/><path class="cls-8" d="M80.1,18.88a1.37,1.37,0,0,0,1.37-1.36A12.43,12.43,0,0,1,93.89,5.09a1.37,1.37,0,1,0,0-2.74A15.18,15.18,0,0,0,78.73,17.52,1.36,1.36,0,0,0,80.1,18.88Z"/><polygon class="cls-9" points="98.38 43.77 100.66 25.7 99.74 25.43 97.47 43.49 98.38 43.77"/><polygon class="cls-9" points="89.46 43.77 87.19 25.7 88.1 25.43 90.38 43.49 89.46 43.77"/><path class="cls-9" d="M87.93,28c.63,0,.9-.62,1.1-1.06.08-.19.26-.58.36-.58s.27.39.35.58c.2.44.47,1.06,1.1,1.06s.9-.62,1.1-1.06a3.52,3.52,0,0,1,.19-.4c.32.6.91,1.46,1.62,1.46s.9-.62,1.1-1.06c.08-.19.25-.58.35-.58s.27.39.36.58c.19.44.47,1.06,1.1,1.06s.9-.62,1.1-1.06c.08-.19.25-.58.35-.58s.27.39.36.58c.2.44.47,1.06,1.1,1.06v-.82c-.1,0-.27-.39-.35-.57-.2-.46-.48-1.07-1.11-1.07s-.9.61-1.1,1.07c-.08.18-.26.57-.35.57s-.27-.39-.36-.57c-.2-.46-.47-1.07-1.1-1.07s-.9.61-1.1,1.07c-.08.18-.25.57-.35.57s-.76-.66-1.08-1.39a.42.42,0,0,0-.38-.25c-.62,0-.9.62-1.1,1.07-.08.18-.25.57-.35.57s-.27-.39-.35-.57c-.2-.45-.47-1.07-1.1-1.07s-.91.62-1.1,1.07c-.09.18-.26.57-.36.57Z"/><path class="cls-5" d="M85,42.5v9.17a1.14,1.14,0,0,0,1.14,1.13h15.55a1.14,1.14,0,0,0,1.14-1.13V42.5Z"/><path class="cls-5" d="M84.61,44.29h18.56a.9.9,0,0,0,0-1.8H84.61a.9.9,0,0,0,0,1.8Z"/><path class="cls-9" d="M92.82,43.83h10.3a.5.5,0,0,0,.5-.5.51.51,0,0,0-.5-.5H92.82a.51.51,0,0,0-.5.5A.5.5,0,0,0,92.82,43.83Z"/><path class="cls-5" d="M84.61,47.28h18.56a.9.9,0,1,0,0-1.8H84.61a.9.9,0,0,0,0,1.8Z"/><path class="cls-5" d="M84.61,50.27h18.56a.9.9,0,1,0,0-1.79H84.61a.9.9,0,0,0,0,1.79Z"/><path class="cls-9" d="M92.82,46.69h10.3a.51.51,0,0,0,.5-.5.5.5,0,0,0-.5-.5H92.82a.5.5,0,0,0-.5.5A.51.51,0,0,0,92.82,46.69Z"/><path class="cls-9" d="M92.82,49.71h10.3a.5.5,0,1,0,0-1H92.82a.5.5,0,1,0,0,1Z"/><rect class="cls-10" x="91.57" y="44.29" width="8.79" height="0.91"/><rect class="cls-10" x="91.57" y="47.21" width="8.79" height="0.91"/><rect class="cls-10" x="91.57" y="50.12" width="8.79" height="0.91"/><rect class="cls-1" x="25.15" y="69.05" width="14.09" height="2"/><rect class="cls-1" x="20.13" y="51.72" width="5.89" height="1"/><rect class="cls-11" x="16.57" y="76.18" width="5.89" height="2"/><rect class="cls-12" x="25.15" y="55.06" width="14.09" height="1"/><rect class="cls-11" y="62.44" width="32.19" height="1"/><rect class="cls-12" x="38.1" y="79.36" width="1" height="1.75" transform="translate(-45.42 50.78) rotate(-44.99)"/><rect class="cls-12" x="41.26" y="82.52" width="1" height="1.75" transform="translate(-46.75 53.97) rotate(-45.01)"/><rect class="cls-12" x="40.88" y="79.74" width="1.76" height="1" transform="translate(-44.51 53.03) rotate(-45)"/><rect class="cls-12" x="37.72" y="82.9" width="1.75" height="1" transform="translate(-47.66 51.72) rotate(-45)"/><rect class="cls-12" x="8.15" y="50.83" width="1" height="1.76" transform="translate(-34.02 21.25) rotate(-44.98)"/><rect class="cls-12" x="11.31" y="53.99" width="1" height="1.76" transform="translate(-35.35 24.44) rotate(-45.02)"/><rect class="cls-12" x="10.93" y="51.21" width="1.76" height="1" transform="translate(-33.11 23.5) rotate(-45)"/><rect class="cls-12" x="7.77" y="54.37" width="1.75" height="1" transform="translate(-36.27 22.19) rotate(-45)"/><rect class="cls-1" x="126.68" y="50.15" width="14.09" height="2"/><rect class="cls-1" x="139.89" y="68.48" width="5.89" height="1"/><rect class="cls-11" x="143.46" y="43.02" width="5.89" height="2"/><rect class="cls-12" x="126.68" y="65.14" width="14.09" height="1"/><rect class="cls-11" x="133.73" y="57.76" width="32.19" height="1"/><rect class="cls-12" x="126.82" y="40.09" width="1" height="1.75" transform="translate(8.35 102.08) rotate(-45.02)"/><rect class="cls-12" x="123.66" y="36.93" width="1" height="1.75" transform="translate(9.61 98.82) rotate(-44.98)"/><rect class="cls-12" x="123.28" y="40.47" width="1.75" height="1" transform="translate(7.4 99.79) rotate(-45)"/><rect class="cls-12" x="126.44" y="37.31" width="1.76" height="1" transform="translate(10.56 101.11) rotate(-45)"/><path class="cls-11" d="M36.94,47.4a3.71,3.71,0,1,1,3.71-3.71A3.72,3.72,0,0,1,36.94,47.4Zm0-6.42a2.71,2.71,0,1,0,2.71,2.71A2.72,2.72,0,0,0,36.94,41Z"/><path class="cls-1" d="M167.26,51.71a2,2,0,1,1-2-2A2,2,0,0,1,167.26,51.71Z"/><path class="cls-1" d="M158.49,71.77h-7.55V64.22h7.55Zm-6.55-1h5.55V65.22h-5.55Z"/></g></g></svg>